<svg viewBox="0 0 512 512" xmlns="http://www.w3.org/2000/svg">
  <defs>
    <linearGradient id="bg3" x1="0%" y1="0%" x2="100%" y2="100%">
      <stop offset="0%" stop-color="#A5B4FC"/>
      <stop offset="100%" stop-color="#6366F1"/>
    </linearGradient>
  </defs>
  
  <!-- 圆角方形背景 -->
  <rect x="16" y="16" width="480" height="480" rx="100" fill="url(#bg3)"/>
  
  <!-- 底部照片堆 -->
  <g transform="translate(130, 360)">
    <!-- 照片1 -->
    <rect x="0" y="20" width="110" height="125" rx="8" fill="white" transform="rotate(-8 55 82.5)"/>
    <rect x="12" y="30" width="86" height="70" rx="4" fill="#E0E7FF" transform="rotate(-8 55 82.5)"/>
    <!-- 照片2 -->
    <rect x="100" y="15" width="110" height="125" rx="8" fill="white" transform="rotate(6 155 77.5)"/>
    <rect x="112" y="25" width="86" height="70" rx="4" fill="#C7D2FE" transform="rotate(6 155 77.5)"/>
    <!-- 照片3 -->
    <rect x="200" y="25" width="110" height="125" rx="8" fill="white" transform="rotate(-4 255 87.5)"/>
    <rect x="212" y="35" width="86" height="70" rx="4" fill="#E0E7FF" transform="rotate(-4 255 87.5)"/>
  </g>
  
  <!-- 小呆身体 -->
  <ellipse cx="256" cy="280" rx="90" ry="80" fill="#9CA3AF"/>
  
  <!-- 尾巴 -->
  <path d="M210 330 Q180 380 200 400 Q240 380 260 340" fill="#6B7280"/>
  <path d="M302 330 Q332 380 312 400 Q272 380 252 340" fill="#6B7280"/>
  
  <!-- 翅膀 -->
  <ellipse cx="190" cy="290" rx="35" ry="45" fill="#D1D5DB" transform="rotate(-15 190 290)"/>
  <ellipse cx="322" cy="290" rx="35" ry="45" fill="#D1D5DB" transform="rotate(15 322 290)"/>
  
  <!-- 头部 -->
  <ellipse cx="256" cy="190" rx="80" ry="72" fill="#9CA3AF"/>
  
  <!-- 黄色面部 -->
  <ellipse cx="256" cy="205" rx="58" ry="48" fill="#FCD34D"/>
  
  <!-- 橙色腮红 -->
  <circle cx="208" cy="215" r="15" fill="#F97316" opacity="0.9"/>
  <circle cx="304" cy="215" r="15" fill="#F97316" opacity="0.9"/>
  
  <!-- 眼睛 -->
  <circle cx="228" cy="185" r="12" fill="#1F2937"/>
  <circle cx="232" cy="181" r="4" fill="white"/>
  <circle cx="284" cy="185" r="12" fill="#1F2937"/>
  <circle cx="288" cy="181" r="4" fill="white"/>
  
  <!-- 喙 -->
  <path d="M248 215 L256 238 L264 215 Z" fill="#4B5563"/>
  
  <!-- 冠羽 -->
  <path d="M220 130 Q205 85 230 95 Q245 120 242 140" fill="#9CA3AF" stroke="#9CA3AF" stroke-width="10" stroke-linecap="round"/>
  <path d="M256 115 Q256 65 275 80 Q270 115 264 135" fill="#9CA3AF" stroke="#9CA3AF" stroke-width="10" stroke-linecap="round"/>
  <path d="M292 130 Q307 85 282 95 Q267 120 270 140" fill="#9CA3AF" stroke="#9CA3AF" stroke-width="10" stroke-linecap="round"/>
  
  <!-- 脚 -->
  <path d="M232 345 L232 365" stroke="#F97316" stroke-width="6" stroke-linecap="round"/>
  <path d="M280 345 L280 365" stroke="#F97316" stroke-width="6" stroke-linecap="round"/>
  <path d="M220 365 L244 365" stroke="#F97316" stroke-width="6" stroke-linecap="round"/>
  <path d="M268 365 L292 365" stroke="#F97316" stroke-width="6" stroke-linecap="round"/>
</svg>